<svg width="112" height="33" viewBox="0 0 112 33" fill="none" xmlns="http://www.w3.org/2000/svg">
<path d="M16.3623 17.5432C10.1818 17.5432 4.58564 19.6381 0.511387 23.0348C0.330686 23.1844 0.313732 23.4527 0.463376 23.6305C1.92593 25.3783 3.78378 26.869 5.92679 28.021C6.09055 28.1085 6.29384 28.0775 6.42372 27.9476C8.25897 26.1124 9.98692 23.8338 12.4151 22.7637C12.6014 22.6819 12.8132 22.8174 12.8132 23.0207V29.941C12.8132 30.1499 12.9657 30.3306 13.1746 30.3617C14.2108 30.5057 15.2753 30.5791 16.3595 30.5791C17.4437 30.5791 18.511 30.5057 19.5443 30.3617C19.7533 30.3334 19.9058 30.1527 19.9058 29.941V23.0207C19.9058 22.8174 20.1175 22.679 20.3039 22.7637C22.7349 23.8366 24.4628 26.1152 26.2952 27.9476C26.4251 28.0775 26.6284 28.1085 26.7922 28.021C28.9352 26.8719 30.793 25.3783 32.2556 23.6305C32.4052 23.4527 32.3883 23.1844 32.2076 23.0348C28.1333 19.6381 22.5372 17.5432 16.3567 17.5432H16.3623Z" fill="#FF7200"/>
<path d="M16.3623 15.0359C22.5428 15.0359 28.1389 12.9409 32.2132 9.5443C32.3939 9.39466 32.4108 9.12643 32.2612 8.94855C30.7986 7.20083 28.9408 5.71003 26.7978 4.55806C26.634 4.47053 26.4307 4.50159 26.3009 4.63147C24.4656 6.46672 22.7377 8.74525 20.3095 9.81534C20.1231 9.89722 19.9114 9.7617 19.9114 9.55841V2.63811C19.9114 2.42917 19.7589 2.24847 19.55 2.21741C18.5138 2.07342 17.4493 2 16.3651 2C15.2809 2 14.2136 2.07342 13.1802 2.21741C12.9713 2.24565 12.8188 2.42635 12.8188 2.63811V9.55841C12.8188 9.7617 12.6071 9.90005 12.4207 9.81534C9.98972 8.74243 8.26175 6.4639 6.42932 4.63147C6.29944 4.50159 6.09617 4.47053 5.93241 4.55806C3.7894 5.70721 1.93155 7.20083 0.468998 8.94855C0.319355 9.12643 0.336291 9.39466 0.516992 9.5443C4.59125 12.9409 10.1874 15.0359 16.3679 15.0359H16.3623Z" fill="#FF7200"/>
<path d="M44 8.43353V11.508H49.1197V24.2575H53.1551V11.508H58.2512V8.43353H44Z" fill="#11224E"/>
<path d="M81.8913 8.43348L78.5806 19.542L75.0886 8.43348H70.8957L67.5613 19.542L64.0904 8.43348H59.887L64.6365 22.9788C65.4898 25.5912 69.1891 25.5754 70.0188 22.9551L72.9987 13.5611L75.9708 22.9368C76.8005 25.5544 80.4998 25.5702 81.3531 22.9604L86.0948 8.43085H81.8913V8.43348Z" fill="#11224E"/>
<path d="M88.0481 8.43353V24.2548H92.0835V8.43353H88.0481Z" fill="#11224E"/>
<path d="M107.616 8.43351V18.7071L100.325 9.1844C98.6813 7.03936 95.2524 8.19985 95.2524 10.9041V24.2574H99.2878V14.0626L106.597 23.5354C108.246 25.67 111.662 24.5069 111.662 21.8078V8.43351H107.616Z" fill="#11224E"/>
</svg>
