<svg xmlns="http://www.w3.org/2000/svg" width="112" height="32" fill="none"><path fill="#FF7200" d="M16.362 17.043c-6.18 0-11.776 2.095-15.85 5.492a.421.421 0 0 0-.049.595c1.463 1.748 3.32 3.239 5.464 4.39a.423.423 0 0 0 .497-.073c1.835-1.835 3.563-4.113 5.991-5.183a.284.284 0 0 1 .398.256v6.92c0 .21.153.39.362.421 1.036.145 2.1.218 3.184.218 1.085 0 2.152-.073 3.185-.218a.421.421 0 0 0 .362-.42v-6.92c0-.204.212-.342.398-.258 2.43 1.073 4.159 3.352 5.991 5.184.13.13.333.161.497.074 2.143-1.15 4.001-2.643 5.464-4.39a.421.421 0 0 0-.048-.596c-4.075-3.397-9.67-5.492-15.851-5.492h.005ZM16.363 14.536c6.18 0 11.776-2.095 15.85-5.492a.421.421 0 0 0 .048-.595C30.8 6.7 28.941 5.21 26.798 4.059a.423.423 0 0 0-.497.072c-1.835 1.836-3.563 4.114-5.991 5.184a.284.284 0 0 1-.398-.257v-6.92a.425.425 0 0 0-.362-.42 23.146 23.146 0 0 0-3.185-.218c-1.084 0-2.151.073-3.184.217a.42.42 0 0 0-.362.421v6.92a.282.282 0 0 1-.398.257C9.99 8.242 8.262 5.964 6.43 4.131a.424.424 0 0 0-.497-.073C3.79 5.208 1.932 6.701.469 8.448a.421.421 0 0 0 .048.596c4.074 3.397 9.67 5.492 15.851 5.492h-.005Z"/><path fill="#11224E" d="M44 7.933v3.074h5.12v12.75h4.035v-12.75h5.096V7.933H44ZM81.891 7.933l-3.31 11.109-3.493-11.109h-4.192L67.56 19.042l-3.47-11.109h-4.204l4.75 14.546c.853 2.612 4.552 2.596 5.382-.024l2.98-9.394 2.972 9.376c.83 2.617 4.529 2.633 5.382.023l4.742-14.53H81.89v.003ZM88.048 7.933v15.82h4.035V7.934h-4.035ZM107.616 7.933v10.274l-7.291-9.523c-1.643-2.145-5.072-.985-5.072 1.72v13.353h4.035V13.562l7.31 9.473c1.649 2.134 5.064.971 5.064-1.728V7.933h-4.046Z"/></svg>